<?xml version="1.0" encoding="utf-8"?>
<!-- Generator: Adobe Illustrator 23.0.3, SVG Export Plug-In . SVG Version: 6.00 Build 0)  -->
<svg version="1.1" id="Layer_1" xmlns="http://www.w3.org/2000/svg" xmlns:xlink="http://www.w3.org/1999/xlink" x="0px" y="0px"
	 viewBox="0 0 400 400" style="enable-background:new 0 0 400 400;" xml:space="preserve">
<style type="text/css">
	.st0{fill:#1C40F2;}
	.st1{fill:#FFFFFF;}
</style>
<g>
	
		<image style="overflow:visible;opacity:0.3;" width="350" height="350" xlink:href="5106D641455E2324.png"  transform="matrix(1 0 0 1 35 45)">
	</image>
	<g>
		<g>
			<path class="st0" d="M275,300H125c-13.8,0-25-11.2-25-25V125c0-13.8,11.2-25,25-25h150c13.8,0,25,11.2,25,25v150
				C300,288.8,288.8,300,275,300z"/>
		</g>
	</g>
</g>
<g>
	<path class="st1" d="M163.9,191.9H145c-0.8,0-1.4-0.6-1.4-1.4v-2.8c0-0.8,0.6-1.4,1.4-1.4h18.5C163.5,188.1,163.6,190,163.9,191.9z
		 M168.2,204.3c0.9,1.6,2,3.2,3.2,4.7l-17.6,10.2c-0.2,0.1-0.5,0.2-0.7,0.2c-0.5,0-1-0.3-1.2-0.7l-1.4-2.5c-0.1-0.2-0.2-0.5-0.2-0.7
		c0-0.5,0.3-1,0.7-1.2L168.2,204.3z M150.5,161.9l1.4-2.5c0.2-0.4,0.8-0.7,1.2-0.7c0.2,0,0.5,0.1,0.7,0.2l14.8,8.5
		c-1,1.6-1.8,3.3-2.5,5.1l-15.1-8.7C150.3,163.4,150.1,162.6,150.5,161.9z M231.5,186.2c0,7.9-2.9,15-7.7,20.5
		c-4.5,5.1-8.9,13.6-9.3,16.4l0,13.3c0,0.6-0.2,1.1-0.5,1.6l-4.3,6.5c-0.5,0.8-1.4,1.3-2.4,1.3h-14c-0.9,0-1.8-0.5-2.4-1.3l-4.3-6.5
		c-0.3-0.5-0.5-1-0.5-1.6l0-13.3c-0.4-2.7-4.7-11.2-9.3-16.4c-4.8-5.5-7.7-12.6-7.7-20.5c0-16.4,13-31.2,31.2-31.2
		C217.5,155,231.5,169,231.5,186.2z M225.8,186.2c0-14.1-11.5-25.5-25.5-25.5c-14.8,0-25.6,11.9-25.5,25.5c0,6.2,2.2,12.1,6.3,16.8
		c2.5,2.8,6.4,8.5,9,14.4h20.5c2.5-5.9,6.5-11.6,9-14.4C223.6,198.3,225.8,192.4,225.8,186.2z M203.1,169.2c0,1.6-1.3,2.8-2.8,2.8
		c-7.8,0-14.2,6.4-14.2,14.2c0,1.6-1.3,2.8-2.8,2.8s-2.8-1.3-2.8-2.8c0-10.9,8.9-19.9,19.9-19.9
		C201.9,166.3,203.1,167.6,203.1,169.2z M208.8,223.1h-17l0,5.7h17L208.8,223.1z M208.8,234.4h-17l0,1.1l3,4.6h10.9l3-4.6V234.4z
		 M250.1,216.2l-1.4,2.5c-0.4,0.7-1.3,0.9-1.9,0.5L229.1,209c1.2-1.5,2.3-3,3.2-4.7l17.3,10C250.3,214.6,250.5,215.5,250.1,216.2z
		 M234.5,172.6c-0.7-1.8-1.6-3.5-2.5-5.1l14.8-8.5c0.2-0.1,0.5-0.2,0.7-0.2c0.5,0,1,0.3,1.2,0.7l1.4,2.5c0.1,0.2,0.2,0.5,0.2,0.7
		c0,0.5-0.3,1-0.7,1.2L234.5,172.6z M257,187.6v2.8c0,0.8-0.6,1.4-1.4,1.4h-19c0.3-1.9,0.5-3.8,0.5-5.7h18.4
		C256.4,186.2,257,186.8,257,187.6z"/>
</g>
</svg>
