<?xml version="1.0" encoding="utf-8"?>
<!-- Generator: Adobe Illustrator 23.0.3, SVG Export Plug-In . SVG Version: 6.00 Build 0)  -->
<svg version="1.1" id="Layer_1" xmlns="http://www.w3.org/2000/svg" xmlns:xlink="http://www.w3.org/1999/xlink" x="0px" y="0px"
	 viewBox="0 0 400 400" style="enable-background:new 0 0 400 400;" xml:space="preserve">
<style type="text/css">
	.st0{fill:#1C40F2;}
	.st1{fill:#FFFFFF;}
</style>
<g>
	
		<image style="overflow:visible;opacity:0.3;" width="350" height="350" xlink:href="CA7B0BFEE8A497AD.png"  transform="matrix(1 0 0 1 35 45)">
	</image>
	<g>
		<g>
			<path class="st0" d="M275,300H125c-13.8,0-25-11.2-25-25V125c0-13.8,11.2-25,25-25h150c13.8,0,25,11.2,25,25v150
				C300,288.8,288.8,300,275,300z"/>
		</g>
	</g>
</g>
<g>
	<path class="st1" d="M232.9,212c-0.4,1.6-1.3,3-2.3,4.3l10.1,24.9c0.9,2.2-0.7,4.7-3.1,4.7c-0.1,0,0.6,0-11.3-0.4l-7.7,8.1
		c-0.7,0.7-1.6,1.1-2.5,1.1c-1.3,0-2.6-0.7-3.1-2.1l-11.1-27.3c-0.4-0.1-1.1-0.3-1.6-0.3c-0.5,0-1.2,0.1-1.6,0.3l-11.1,27.3
		c-0.6,1.4-1.8,2.1-3.1,2.1c-0.9,0-1.8-0.3-2.5-1.1l-7.7-8.1c-11.9,0.5-11.2,0.4-11.3,0.4c-2.4,0-4-2.4-3.1-4.7l10.1-24.9
		c-1-1.3-1.8-2.7-2.3-4.3c-1.3-5.1-0.9-4.4-4.6-8.2c-3-3-4.2-7.5-3.1-11.6c1.4-5.1,1.4-4.3,0-9.5c-1.1-4.1,0.1-8.6,3.1-11.6
		c3.7-3.8,3.3-3.1,4.6-8.2c1.1-4.2,4.3-7.4,8.4-8.5c5-1.4,4.3-1,8-4.7c3-3.1,7.5-4.3,11.5-3.1c5,1.4,4.2,1.4,9.2,0
		c4.1-1.1,8.5,0.1,11.6,3.1c3.6,3.7,3.1,3.4,8,4.7c4.1,1.1,7.3,4.4,8.4,8.5c1.3,5.1,0.9,4.4,4.6,8.2c3,3,4.2,7.5,3.1,11.6
		c-1.4,5.1-1.4,4.3,0,9.5c1.1,4.1-0.1,8.6-3.1,11.6C233.8,207.5,234.2,206.9,232.9,212z M232.7,199c1.3-1.3,1.8-3.3,1.3-5.1
		c-1.7-6.4-1.7-6.4,0-12.9c0.5-1.8,0-3.8-1.3-5.2c-4.8-4.8-4.7-4.7-6.4-11.2c-0.5-1.8-1.9-3.2-3.6-3.7c-6.4-1.7-6.3-1.7-11.1-6.5
		c-1.3-1.3-3.2-1.8-4.9-1.3c-6.4,1.8-6.3,1.8-12.8,0c-2-0.5-3.8,0.2-4.9,1.4c-4.8,4.8-4.5,4.7-11,6.5c-1.8,0.5-3.2,1.9-3.6,3.7
		c-1.7,6.5-1.6,6.4-6.4,11.2c-1.3,1.3-1.8,3.3-1.3,5.1c1.7,6.5,1.7,6.5,0,12.9c-0.5,1.8,0,3.8,1.3,5.2c4.8,4.8,4.7,4.7,6.4,11.2
		c0.5,1.8,1.9,3.2,3.6,3.7c5.1,1.4,6.1,1.4,9.7,5.2c1.7,1.7,4.3,2,6.3,0.7c3.8-2.4,8.8-2.4,12.6,0c2,1.3,4.6,1,6.3-0.7
		c3.7-3.8,4.7-3.8,9.7-5.2c1.8-0.5,3.2-1.9,3.6-3.7C228,203.7,227.9,203.8,232.7,199z M190.5,227.4c-2.8-0.2-5.5-1.3-7.6-3.5
		c-2.4-2.4-2.1-2.1-6.7-3.4c-0.2,0-0.3-0.2-0.5-0.2l-7.5,18.5c7-0.3,5.1-0.2,9-0.3c2.7,2.8,1.4,1.5,6.2,6.5L190.5,227.4z
		 M220.7,186.7c0,11.2-9.1,20.3-20.3,20.3c-11.2,0-20.3-9.1-20.3-20.3c0-11.2,9.1-20.3,20.3-20.3
		C211.5,166.4,220.7,175.5,220.7,186.7z M213.9,186.7c0-7.5-6.1-13.6-13.6-13.6c-7.5,0-13.6,6.1-13.6,13.6c0,7.5,6.1,13.6,13.6,13.6
		C207.8,200.3,213.9,194.2,213.9,186.7z M225,220.3c-0.2,0.1-0.3,0.2-0.5,0.2c-4.6,1.2-4.3,0.9-6.7,3.4c-2.1,2.1-4.8,3.3-7.6,3.5
		l7.2,17.7c4.8-5.1,3.5-3.7,6.2-6.5c3.9,0.1,2,0.1,9,0.3L225,220.3z"/>
</g>
</svg>
