<?xml version="1.0" encoding="utf-8"?>
<!-- Generator: Adobe Illustrator 23.0.3, SVG Export Plug-In . SVG Version: 6.00 Build 0)  -->
<svg version="1.1" id="Layer_1" xmlns="http://www.w3.org/2000/svg" xmlns:xlink="http://www.w3.org/1999/xlink" x="0px" y="0px"
	 viewBox="0 0 400 400" style="enable-background:new 0 0 400 400;" xml:space="preserve">
<style type="text/css">
	.st0{fill:#1C40F2;}
	.st1{fill:#FFFFFF;}
</style>
<g>
	
		<image style="overflow:visible;opacity:0.3;" width="350" height="350" xlink:href="C3601516F1F35044.png"  transform="matrix(1 0 0 1 35 45)">
	</image>
	<g>
		<g>
			<path class="st0" d="M275,300H125c-13.8,0-25-11.2-25-25V125c0-13.8,11.2-25,25-25h150c13.8,0,25,11.2,25,25v150
				C300,288.8,288.8,300,275,300z"/>
		</g>
	</g>
</g>
<g>
	<path class="st1" d="M262.5,177.4v3.1c0,0.9-0.7,1.6-1.6,1.6l-10.9,0v37.2H261c0.9,0,1.6,0.7,1.6,1.6v3.1c0,0.9-0.7,1.6-1.6,1.6
		h-10.9c-3.4,0-6.2-2.8-6.2-6.1h-9.4c-0.2,1.8-0.8,3.5-2,5l-1.8,2.3c-3.3,4.1-8.5,4.1-11.6,2.3l-4.2,5.2c-2,2.4-4.9,3.8-8,3.8
		c-2.4,0-4.6-0.8-6.5-2.3l-1.4-1.2c-5.7,4.6-13.8,4.7-19.6,0l-15.8-15.1H157c0,3.4-2.8,6.1-6.2,6.1H140c-0.9,0-1.6-0.7-1.6-1.6v-3.1
		c0-0.9,0.7-1.6,1.6-1.6h10.9V182H140c-0.9,0-1.6-0.7-1.6-1.6v-3.1c0-0.9,0.7-1.6,1.6-1.6h22l9.7-9.7c1.7-1.7,4.1-2.7,6.6-2.7h13.5
		c2.1,0,4.1,0.7,5.7,2c1.6-1.2,3.5-1.9,5.5-1.9h19.6c2.5,0,4.8,1,6.6,2.7l9.9,9.7l22,0C261.8,175.8,262.5,176.5,262.5,177.4z
		 M138.4,209.9c0-1.7,1.4-3.1,3.1-3.1s3.1,1.4,3.1,3.1c0,1.7-1.4,3.1-3.1,3.1S138.4,211.6,138.4,209.9z M227.2,216l-24.4-19.8
		l-4.4,4.1c-7.4,6.8-16,2.2-18.8-0.8c-4.9-5.4-4.7-13.8,0.8-18.8l11.4-10.5c-0.2-0.4,0-0.1-0.2-0.6h-13.5c-0.8,0-1.6,0.3-2.2,0.9
		L164.5,182h-7.5v31.1h8.9l17.4,16.7c3.8,3.1,9.7,2.4,12.9-1.5l2-2.5l5.9,5.1c1.6,1.3,4.2,1.1,5.7-0.7l8-9.9l3.5,2.8
		c1.4,1.1,3.3,0.8,4.4-0.4l1.8-2.3C228.7,219,228.5,217.1,227.2,216z M243.9,182h-7.5l-11.8-11.5c-0.6-0.6-1.4-0.9-2.2-0.9h-19.6
		c-0.8,0-1.5,0.3-2.1,0.8l-16.1,14.8c-2.9,2.7-3.1,7.2-0.4,10c2.5,2.8,7.2,3,10,0.4l14.6-13.3c1.3-1.1,3.2-1.1,4.4,0.2
		s1.1,3.2-0.2,4.4l-5.5,5.1l23.6,19.2c0.7,0.6,1.2,1.2,1.7,1.9h11.1V182z M262.5,209.9c0,1.7-1.4,3.1-3.1,3.1
		c-1.7,0-3.1-1.4-3.1-3.1c0-1.7,1.4-3.1,3.1-3.1C261.1,206.8,262.5,208.2,262.5,209.9z"/>
</g>
</svg>
